# xmcd
#
# Track frame offsets:
# 180
# 20525
# 46512
# 62013
# 82556
# 104117
# 121467
# 139051
# 159770
# 180678
# 202578
# 221064
#
# Disc length: 3192 seconds
#
#
# Revision: 5
# Processed by: cddbd v1.5.2PL0 Copyright (c) Steve Scherf et al.
# Submitted via: FreeRIP 2.60 
#
DISCID=940c760c
DTITLE=Soda Stereo - Sueño Stereo
DYEAR=1995
DGENRE=Rock
TTITLE0=Ella usó mi cabeza como un revólver
TTITLE1=Disco eterno
TTITLE2=Zoom
TTITLE3=Ojo de la tormenta
TTITLE4=Efecto doppler
TTITLE5=Paseando por Roma
TTITLE6=Pasos
TTITLE7=Angel eléctrico
TTITLE8=Crema de estrellas
TTITLE9=Planta
TTITLE10=X-Playo
TTITLE11=Moirè
EXTD=YEAR: 1995 ID3G: 17
EXTT0=Programa 1
EXTT1=Programa 1
EXTT2=Programa 1
EXTT3=Programa 2
EXTT4=Programa 2
EXTT5=Programa 2
EXTT6=Programa 3
EXTT7=Programa 3
EXTT8=Programa 3
EXTT9=Programa 4 (suite)
EXTT10=Programa 4 (suite)
EXTT11=Programa 4 (suite)
PLAYORDER=
